<?xml version="1.0" encoding="utf-8"?>
<!-- Generator: Adobe Illustrator 16.0.0, SVG Export Plug-In . SVG Version: 6.00 Build 0)  -->
<!DOCTYPE svg PUBLIC "-//W3C//DTD SVG 1.1//EN" "http://www.w3.org/Graphics/SVG/1.1/DTD/svg11.dtd">
<svg version="1.1" id="Layer_1" xmlns="http://www.w3.org/2000/svg" xmlns:xlink="http://www.w3.org/1999/xlink" x="0px" y="0px"
	 width="512px" height="512px" viewBox="0 0 512 512" enable-background="new 0 0 512 512" xml:space="preserve">
<path fill="#010101" d="M240,271.813c31.719,0,71.969-12.094,98.344-21.406c3.625-5.656,7.281-11.375,10.906-17.188
	c-18.906-6-36.125-15.219-45.25-25.406c21.156,0,45.938-5.438,68.063-11.75c5.844-9.688,11.5-19.188,17-28.5
	c-16.844-6-31.813-14.5-40.094-23.75c18.375,0,39.594-4.125,59.344-9.344C431.625,94,512,0,512,0
	C315.594,65.469,65.469,315.594,0,512l64-32c0,0,32-79,64-112c23.969-24.719,87-5,128-16c10.313-2.75,27.594-22.375,47.656-50.188
	C278.094,297.063,252.031,285.25,240,271.813z"/>
</svg>
